<svg width="64" height="64" viewBox="0 0 64 64" fill="none" xmlns="http://www.w3.org/2000/svg">
<g clip-path="url(#clip0_28225_1239)">
<path d="M52 0H12C5.37258 0 0 5.37258 0 12V52C0 58.6274 5.37258 64 12 64H52C58.6274 64 64 58.6274 64 52V12C64 5.37258 58.6274 0 52 0Z" fill="#F3EEE6"/>
<path fill-rule="evenodd" clip-rule="evenodd" d="M46.8223 6.98652C48.4714 6.20728 50.6723 5.66596 52.9639 6.23835C54.1865 6.54441 55.5455 7.42028 56.2392 8.61886C57.4332 10.6846 57.0182 13.4133 56.3756 15.6235C55.7245 17.8677 54.6411 19.6017 53.4413 20.9958C50.8113 24.0476 47.2462 25.9322 42.5919 26.7766C40.1724 34.4302 37.4625 41.792 33.448 47.8588C36.5995 51.0183 41.1753 53.597 45.3894 51.395C46.3137 50.7676 47.1594 50.0249 47.94 49.2165C48.4894 50.149 49.2109 53.4353 47.6415 55.0677C45.6647 57.1237 42.7314 57.5958 39.9787 57.5958C36.385 57.5958 31.3242 56.0139 28.7397 53.4353C25.7885 55.9062 22.2033 58.1276 16.8668 58.1277C14.2112 58.1277 12.0246 57.765 10.1794 56.5636C8.53321 55.4896 7.22822 53.8746 7.04056 51.4632C6.73918 47.5585 8.1524 44.7023 10.1114 42.6225C12.022 40.5908 14.5636 38.9583 18.3677 38.9498C22.5927 38.9385 25.2141 40.7664 27.7161 42.6225C30.2238 37.6183 32.1231 32.0077 34.1987 26.5728C31.3043 25.8616 28.5434 24.0166 28.5348 20.1799C28.5263 17.0147 30.0818 13.1894 33.7893 13.3112C33.4879 16.6266 34.6026 18.5307 36.9965 19.1597C37.3234 18.8622 37.5025 18.4002 37.6788 18.0036C39.669 13.518 42.242 9.14858 46.8223 6.98652ZM23.5537 48.5387C21.973 47.4167 19.8548 45.9772 16.8668 46.2265C14.8993 46.3908 12.7101 47.6802 13.1137 49.8309C13.3127 50.8822 14.703 51.4347 15.9796 51.531C19.6189 51.8058 21.8649 50.1851 23.5537 48.5387ZM51.2576 11.5429C50.5696 11.0303 49.5748 11.5771 49.2109 11.8831C47.4822 13.3424 46.1459 16.522 45.3214 18.548C46.8027 17.9699 48.1305 16.9723 49.2109 15.8955C50.2401 14.8697 51.4282 13.4952 51.2576 11.5429Z" fill="black"/>
</g>
<defs>
<clipPath id="clip0_28225_1239">
<rect width="64" height="64" fill="white"/>
</clipPath>
</defs>
</svg>
