<svg width="496" height="134" viewBox="0 0 496 134" fill="none" xmlns="http://www.w3.org/2000/svg">
<path fill-rule="evenodd" clip-rule="evenodd" d="M212.97 78.0146C213.995 77.5053 214.957 76.7194 215.988 75.902C222.301 70.8844 230.865 64.1315 241.793 64.1315C247.401 64.1315 253.897 66.0492 253.412 72.2803C253.274 74.0849 252.255 75.7511 251.3 77.411C246.861 85.1071 241.504 91.5897 236.511 98.5376C234.543 101.273 232.43 104.165 231.531 107.894C232.726 109.051 234.725 108.956 236.511 109.101C242.29 109.572 248.319 108.302 252.356 106.686C253.488 97.8648 257.845 90.7031 261.712 83.749C265.384 77.1407 269.421 70.6015 273.935 63.8297C278.154 57.498 282.336 51.1663 287.215 44.8158C291.484 39.2575 297.024 32.0707 305.927 31.3853C311.762 30.9326 316.541 33.3156 316.792 38.3269C316.949 41.4644 315.384 44.5454 313.925 47.0793C310.322 53.3167 305.449 57.9004 299.74 62.0188C298.621 62.8299 297.269 63.3518 296.269 64.2824C294.993 65.4708 294.112 67.5205 292.949 69.2622C286.259 79.2533 279.575 89.1312 274.539 100.65C273.703 102.568 272.502 104.693 273.03 107.139C276.199 108.497 279.77 106.844 282.084 105.479C284.53 104.039 286.919 101.939 288.724 100.198C292.78 96.2803 295.854 91.0553 297.778 85.5598C293.792 84.4847 290.283 83.4409 289.78 79.3728C289.359 75.9586 291.132 72.362 293.553 70.1676C298.294 65.8794 308.788 64.7791 313.623 69.7149C315.667 71.7961 316.924 75.0783 316.641 79.3728C316.195 86.1446 312.686 93.1868 309.096 98.2358C305.374 103.467 300.847 107.674 295.816 111.214C290.623 114.873 284.536 117.998 277.708 119.362C271.081 120.683 263.064 120.268 257.94 117.551C257.204 117.162 256.594 116.413 255.978 116.344C254.921 116.218 252.759 117.325 251.3 117.702C243.365 119.765 233.267 120.318 223.986 119.362C220.396 118.991 217.057 118.482 214.328 117.099C211.82 115.829 209.103 113.05 209.952 108.346C210.474 105.46 212.524 102.643 214.177 100.198C219.113 92.885 225.118 86.2012 229.419 78.6183C224.785 80.7372 220.949 83.9565 217.045 87.0689C209.657 92.9667 202.47 100.084 196.22 107.592C193.17 111.251 190.335 116.307 186.26 118.306C183.211 119.802 178.319 119.979 173.584 119.362C171.239 119.061 168.963 118.256 168.755 116.495C168.554 114.753 170.623 112.685 171.622 111.364C177.47 103.662 183.091 96.2111 188.675 88.427C190.869 85.3649 193.397 82.3594 194.711 78.4674C191.988 78.7817 189.731 80.3788 187.618 81.7872C177.558 88.4962 168.774 97.3178 161.21 106.988C159.877 108.692 158.236 110.66 156.683 112.723C155.256 114.615 153.728 117.419 152.156 118.457C150.395 119.614 147.635 119.802 144.611 119.966C140.373 120.192 135.827 120.607 134.802 117.25C130.853 118.683 124.616 120.261 118.353 119.966C110.242 119.582 102.1 119.218 99.3395 113.628C96.0196 115.609 92.1715 117.684 87.7199 118.759C86.9528 118.941 86.0914 118.897 85.3054 119.061C84.5698 119.211 83.8907 119.557 83.1928 119.664C73.2771 121.211 63.2546 115.728 57.5391 110.006C51.0125 115.489 43.0837 120.419 31.2818 120.419C25.4091 120.419 20.5739 119.614 16.4932 116.948C12.8526 114.565 9.96661 110.981 9.55162 105.63C8.88513 96.9657 12.0101 90.6277 16.3423 86.0126C20.5676 81.5043 26.1888 77.8826 34.6017 77.8637C43.9452 77.8386 49.7424 81.8941 55.2755 86.0126C60.8212 74.9085 65.0214 62.4589 69.6114 50.3992C63.2106 48.821 57.1052 44.7277 57.0864 36.2142C57.0675 29.1909 60.5069 20.7026 68.706 20.9729C68.0395 28.3295 70.5043 32.5548 75.7985 33.9507C76.5215 33.2905 76.9177 32.2656 77.3075 31.3853C81.7089 21.4319 87.3992 11.7364 97.5286 6.93887C101.175 5.20976 106.042 4.00883 111.11 5.27893C113.814 5.958 116.819 7.90089 118.353 10.5606C120.994 15.1443 120.076 21.1993 118.655 26.1037C117.215 31.0835 114.82 34.9316 112.166 38.0251C106.35 44.7969 98.4655 48.9782 88.1726 50.8519C82.8218 67.8349 76.8296 84.1703 67.9515 97.6322C72.2208 101.927 76.5153 104.285 82.5891 106.686C83.5071 107.051 84.5257 107.252 85.6072 107.592C86.7076 107.938 87.7199 108.447 88.7762 108.346C90.5053 108.189 92.9701 106.429 94.3597 105.479C99.3269 102.096 103.282 97.2172 106.583 92.3505C108.909 88.9237 111.141 85.2832 113.072 81.9381C114.128 80.1084 114.958 78.1844 115.939 76.3547C117.41 73.6007 118.636 70.7524 120.919 68.6586C124.226 65.6279 130.074 63.4587 137.216 63.9806C139.826 64.1692 142.448 64.9677 142.8 66.9986C143.165 69.0861 141.222 71.2806 140.234 72.733C136.921 77.5997 133.538 82.4286 130.275 87.3707C128.231 90.4642 126.131 93.8093 123.786 97.3304C122.836 98.7577 121.648 100.279 120.466 102.159C119.668 103.429 117.668 106.366 118.202 107.743C118.787 109.245 123.754 109.522 127.257 109.252C132.846 108.818 137.405 105.592 140.838 102.159C147.698 95.2994 152.527 86.3772 157.136 77.411C159.424 72.9531 161.971 67.9607 165.586 65.3387C168.611 63.1443 173.132 62.8488 178.866 63.5279C181.305 63.8171 183.858 64.4836 184.148 66.2441C184.361 67.5708 183.305 68.9667 182.488 70.1676C180.262 73.4435 177.363 77.0401 175.244 79.8255C175.213 79.945 175.093 79.9764 175.093 80.1273C178.784 77.0778 183.355 73.3743 188.524 70.1676C193.529 67.0615 199.1 64.1315 205.727 64.1315C209.921 64.1315 214.479 65.7223 215.536 69.1113C216.655 72.7016 214.429 75.7134 212.97 78.0146ZM102.81 17.804C98.9874 21.0421 96.0322 28.0969 94.2088 32.5925C97.4846 31.3099 100.421 29.0966 102.81 26.7073C105.086 24.4312 107.715 21.3816 107.337 17.0494C105.816 15.9114 103.615 17.1249 102.81 17.804ZM31.2818 94.0105C26.9307 94.3752 22.0892 97.236 22.9821 102.008C23.4222 104.341 26.4969 105.567 29.32 105.781C37.3683 106.391 42.3355 102.794 46.0704 99.1412C42.5744 96.6513 37.8901 93.4572 31.2818 94.0105Z" fill="black"/>
<path fill-rule="evenodd" clip-rule="evenodd" d="M149.137 30.4799C153.928 30.2787 158.166 32.1524 159.097 35.6106C160.078 39.2638 157.902 42.722 156.531 44.3631C154.381 46.941 149.904 49.3743 146.119 49.9465C138.555 51.0909 131.506 47.5509 134.65 39.6851C135.845 36.6984 138.838 33.7432 142.044 32.1399C144.107 31.1087 146.628 30.5868 149.137 30.4799Z" fill="black"/>
<path fill-rule="evenodd" clip-rule="evenodd" d="M368.853 67.3005C375.707 65.3639 382.799 67.8349 383.491 74.5438C383.899 78.4862 382.441 82.5795 381.076 86.0125C379.712 89.4456 377.932 92.426 376.247 95.0668C372.5 100.927 368.293 105.454 363.119 109.704C357.944 113.961 352.046 117.564 344.859 119.211C336.805 121.054 328.216 120.318 321.922 116.344C315.012 118.639 307.045 119.878 297.928 119.966C297.331 119.79 298.167 119.123 298.381 118.759C300.11 115.803 302.21 112.289 304.115 109.403C308.63 109.239 312.704 108.642 316.338 107.592C315.54 100.631 318.501 93.5577 321.771 88.5779C327.398 79.9952 335.365 73.148 345.01 68.6586C350.103 66.2881 355.523 64.4584 361.761 63.9806C365.313 63.7102 368.413 63.9806 368.853 67.3005ZM351.65 81.6363C347.01 86.0251 342.281 90.722 338.974 97.0285C337.943 98.9966 334.68 104.888 336.258 107.743C338.113 111.094 345.74 107.277 347.274 106.385C355.548 101.568 361.679 93.9539 364.628 84.8053C362.188 84.1828 359.491 82.6989 359.044 79.9764C358.736 78.1089 359.484 76.2541 359.799 74.8456C356.787 76.9646 354.285 79.1464 351.65 81.6363Z" fill="black"/>
<path fill-rule="evenodd" clip-rule="evenodd" d="M399.639 108.799C398.91 111.289 398.696 114.294 398.13 116.948H394.659C395.621 109.66 397.105 101.593 398.432 94.1614C401.11 94.3249 403.858 93.9413 406.128 94.1614C408.737 94.4129 411.41 96.0351 411.711 98.3867C412.585 105.184 407.228 109.44 399.639 108.799ZM407.939 99.2921C407.599 97.3052 404.311 97.4561 401.601 97.4813C401.412 97.5441 401.293 97.6762 401.299 97.934C400.941 100.443 400.488 102.857 400.092 105.328C405.116 106.102 408.656 103.492 407.939 99.2921Z" fill="black"/>
<path fill-rule="evenodd" clip-rule="evenodd" d="M425.292 94.1614C426.656 101.751 427.977 109.384 429.366 116.948H425.594C425.197 114.93 424.896 112.817 424.537 110.761H416.237C414.999 112.641 414.056 114.816 413.068 116.948H409.296C413.207 109.34 416.998 101.612 421.066 94.1614H425.292ZM417.897 107.441H423.934C423.405 104.448 423.104 101.229 422.274 98.5376C420.84 101.531 419.243 104.36 417.897 107.441Z" fill="black"/>
<path fill-rule="evenodd" clip-rule="evenodd" d="M436.61 108.799C435.881 111.289 435.667 114.294 435.101 116.948H431.479C432.831 109.396 433.969 101.637 435.403 94.1612C439.314 94.375 443.401 93.6017 445.966 94.9158C447.01 95.4502 448.507 97.0284 448.683 98.3866C449.557 105.19 444.199 109.434 436.61 108.799ZM444.91 99.292C444.57 97.3051 441.282 97.456 438.572 97.4811C438.383 97.544 438.264 97.6761 438.27 97.9338C437.912 100.443 437.459 102.857 437.063 105.328C442.087 106.102 445.627 103.492 444.91 99.292Z" fill="black"/>
<path fill-rule="evenodd" clip-rule="evenodd" d="M467.244 94.1614C467.118 95.3938 466.942 96.5758 466.64 97.6322H455.775C455.341 99.1601 455.197 100.977 454.87 102.612C458.24 102.964 462.264 102.662 465.886 102.763C465.64 103.876 465.489 105.083 465.282 106.234H454.417C453.688 108.321 453.581 111.031 453.059 113.326C456.429 113.678 460.453 113.376 464.075 113.477C463.867 114.621 463.653 115.772 463.471 116.948H448.984C449.852 109.616 451.594 101.851 452.606 94.1614H467.244Z" fill="black"/>
<path fill-rule="evenodd" clip-rule="evenodd" d="M479.315 106.988C481.177 110.516 483.654 113.414 485.503 116.948H481.277C480.516 116.457 480.227 115.558 479.768 114.835C478.467 112.767 476.876 110.503 475.543 108.196H472.374C471.538 110.83 471.318 114.081 470.714 116.948H467.243C468.111 109.617 469.846 101.845 470.865 94.1614C475.342 94.2746 480.969 93.4949 483.239 95.8214C486.238 98.8898 483.421 106.02 479.315 106.988ZM479.165 103.819C480.296 102.813 480.969 100.807 480.674 99.1413C480.309 97.1166 476.876 97.519 474.185 97.4813C473.996 97.5442 473.877 97.6762 473.883 97.934C473.6 100.367 472.996 102.486 472.827 105.027C475.285 104.888 477.674 105.146 479.165 103.819Z" fill="black"/>
</svg>
